<?xml version="1.0" encoding="iso-8859-1"?>
<!-- Generator: Adobe Illustrator 18.0.0, SVG Export Plug-In . SVG Version: 6.00 Build 0)  -->
<!DOCTYPE svg PUBLIC "-//W3C//DTD SVG 1.1//EN" "http://www.w3.org/Graphics/SVG/1.1/DTD/svg11.dtd">
<svg version="1.1" id="Capa_1" xmlns="http://www.w3.org/2000/svg" xmlns:xlink="http://www.w3.org/1999/xlink" x="0px" y="0px" viewBox="0 0 330.006 330.006" style="enable-background: new 0 0 330.006 330.006" xml:space="preserve">
<g>
	<path d="M321.711,216.586l-30-15l-51.708-25.854v-50.729c0-5.015-2.506-9.699-6.68-12.48l-53.32-35.547V60.003h15
		c8.284,0,15-6.716,15-15s-6.716-15-15-15h-15v-15c0-8.284-6.716-15-15-15c-8.284,0-15,6.716-15,15v15h-15c-8.284,0-15,6.716-15,15
		s6.716,15,15,15h15v16.973l-53.32,35.547c-4.173,2.782-6.68,7.465-6.68,12.48v50.729l-51.708,25.854l-30,15
		c-7.41,3.705-10.413,12.715-6.708,20.124c2.628,5.257,7.925,8.295,13.428,8.295c2.254,0,4.544-0.51,6.696-1.587l8.292-4.146v75.73
		c0,8.284,6.716,15,15,15h90h60h90c8.284,0,15-6.716,15-15v-75.73l8.292,4.146c2.153,1.077,4.442,1.587,6.696,1.587
		c5.502,0,10.8-3.039,13.428-8.295C332.124,229.301,329.121,220.291,321.711,216.586z M150.003,300.003v-35c0-8.271,6.729-15,15-15
		s15,6.729,15,15v35H150.003z M270.003,300.003h-60v-35c0-24.813-20.187-45-45-45s-45,20.187-45,45v35h-60v-75.73l51.345-25.672
		l0.363-0.182c5.082-2.541,8.292-7.735,8.292-13.416v-51.972l45-30l45,30v51.972c0,5.682,3.21,10.875,8.292,13.416l0.268,0.134
		l51.439,25.72V300.003z"></path>
	<path d="M165.003,140.003c-8.284,0-15,6.716-15,15v10c0,8.284,6.716,15,15,15c8.284,0,15-6.716,15-15v-10
		C180.003,146.719,173.287,140.003,165.003,140.003z"></path>
</g>
<g>
</g>
<g>
</g>
<g>
</g>
<g>
</g>
<g>
</g>
<g>
</g>
<g>
</g>
<g>
</g>
<g>
</g>
<g>
</g>
<g>
</g>
<g>
</g>
<g>
</g>
<g>
</g>
<g>
</g>
</svg>
