<svg version="1.1" id="Capa_1" xmlns="http://www.w3.org/2000/svg" x="0" y="0" viewBox="0 0 330.006 330.006" style="enable-background:new 0 0 330.006 330.006" xml:space="preserve"><path d="m321.711 216.586-30-15-51.708-25.854v-50.729c0-5.015-2.506-9.699-6.68-12.48l-53.32-35.547V60.003h15c8.284 0 15-6.716 15-15s-6.716-15-15-15h-15v-15c0-8.284-6.716-15-15-15-8.284 0-15 6.716-15 15v15h-15c-8.284 0-15 6.716-15 15s6.716 15 15 15h15v16.973l-53.32 35.547a15 15 0 0 0-6.68 12.48v50.729l-51.708 25.854-30 15c-7.41 3.705-10.413 12.715-6.708 20.124 2.628 5.257 7.925 8.295 13.428 8.295 2.254 0 4.544-.51 6.696-1.587l8.292-4.146v75.73c0 8.284 6.716 15 15 15h240c8.284 0 15-6.716 15-15v-75.73l8.292 4.146a14.932 14.932 0 0 0 6.696 1.587c5.502 0 10.8-3.039 13.428-8.295 3.705-7.409.702-16.419-6.708-20.124zm-171.708 83.417v-35c0-8.271 6.729-15 15-15s15 6.729 15 15v35h-30zm120 0h-60v-35c0-24.813-20.187-45-45-45s-45 20.187-45 45v35h-60v-75.73l51.345-25.672.363-.182a15 15 0 0 0 8.292-13.416v-51.972l45-30 45 30v51.972c0 5.682 3.21 10.875 8.292 13.416l.268.134 51.439 25.72v75.73z"/><path d="M165.003 140.003c-8.284 0-15 6.716-15 15v10c0 8.284 6.716 15 15 15 8.284 0 15-6.716 15-15v-10c0-8.284-6.716-15-15-15z"/></svg>