<svg xmlns="http://www.w3.org/2000/svg" width="330.77815mm" height="67.59451mm" viewBox="0 0 937.63885 191.60649"><defs><style>.cls-1{fill:#12120d;}.cls-2{fill:#00a1e5;}</style></defs><g id="Region"><path class="cls-1" d="M660.23729,191.72808c0,21.9746-16.10791,27.30859-26.98828,27.30859-10.88086,0-26.98877-5.334-26.98877-27.30859V143.2979h7.36035v48.43018c0,12.16064,6.7207,20.90771,19.62842,20.90771,12.90722,0,19.62793-8.74707,19.62793-20.90771V143.2979h7.36035Z" transform="translate(-90.50127 -27.51633)"/><path class="cls-1" d="M713.67723,216.04985a44.587,44.587,0,0,1-15.7876,2.98682c-18.02783,0-24.74853-12.16113-24.74853-28.48242,0-16.64112,9.17431-28.48194,22.935-28.48194,15.36084,0,21.65479,12.37452,21.65479,26.98877v3.41358h-37.229c0,11.521,6.187,20.80127,17.92089,20.80127,4.90723,0,12.0542-2.02686,15.2544-4.05323Zm-3.30664-29.33545c0-9.49414-3.84033-18.88134-13.86768-18.88134-9.9209,0-16.001,9.92041-16.001,18.88134Z" transform="translate(-90.50127 -27.51633)"/><path class="cls-1" d="M730.52977,175.51323a97.76109,97.76109,0,0,0-.42676-12.16064h6.7207v10.4541h.21338c2.45313-6.08057,7.04053-11.73438,13.97412-11.73438a19.97081,19.97081,0,0,1,4.69385.64014V169.753a17.63042,17.63042,0,0,0-4.90723-.64014c-10.66748,0-13.54736,11.94776-13.54736,21.76172V217.7564h-6.7207Z" transform="translate(-90.50127 -27.51633)"/><path class="cls-1" d="M766.05028,137.75054h6.7207v47.897l24.32129-22.29492h8.64062L779.17137,187.461l29.76172,30.29541h-9.28028L772.771,189.80767V217.7564h-6.7207Z" transform="translate(-90.50127 -27.51633)"/><path class="cls-1" d="M819.38524,137.75054h6.7207v34.77588h.21289a18.45321,18.45321,0,0,1,16.96143-10.45411c14.61425,0,18.56152,9.70752,18.56152,23.14844V217.7564h-6.7207V185.3272c0-9.38721-1.81348-17.49414-12.90772-17.49414-11.94726,0-16.10742,11.30712-16.10742,20.80127V217.7564h-6.7207Z" transform="translate(-90.50127 -27.51633)"/><path class="cls-1" d="M915.17625,216.04985a44.58692,44.58692,0,0,1-15.7876,2.98682c-18.02783,0-24.74853-12.16113-24.74853-28.48242,0-16.64112,9.17432-28.48194,22.93506-28.48194,15.36084,0,21.65478,12.37452,21.65478,26.98877v3.41358H882.001c0,11.521,6.187,20.80127,17.9209,20.80127,4.90722,0,12.0542-2.02686,15.25439-4.05323Zm-3.30664-29.33545c0-9.49414-3.84033-18.88134-13.86767-18.88134-9.9209,0-16.001,9.92041-16.001,18.88134Z" transform="translate(-90.50127 -27.51633)"/><path class="cls-1" d="M938.74949,148.84477h-6.7207v-8.96044h6.7207Zm-6.7207,14.50782h6.7207V217.7564h-6.7207Z" transform="translate(-90.50127 -27.51633)"/><path class="cls-1" d="M1021.41942,217.7564V181.5938c0-7.68067-2.87989-13.76074-11.52051-13.76074-7.36133,0-14.61524,6.29345-14.61524,19.8413v30.082H988.564V181.5938c0-7.68067-2.88086-13.76074-11.521-13.76074-7.36084,0-14.61426,6.29345-14.61426,19.8413v30.082H955.708v-41.603c0-4.16016,0-8.42725-.42676-12.80078h6.50733v9.17383l.21338.10693c2.1333-3.73389,5.33349-10.561,16.96093-10.561,4.8003,0,12.69385,2.02686,14.40088,11.521h.21387a18.26856,18.26856,0,0,1,17.38769-11.521c10.98731,0,17.17481,7.68067,17.17481,18.24121V217.7564Z" transform="translate(-90.50127 -27.51633)"/></g><g id="Reflk"><path class="cls-2" d="M275.43647,34.34536h18.24162a86.962,86.962,0,0,1,10.71811.64046A26.69921,26.69921,0,0,1,313.625,37.756a16.75174,16.75174,0,0,1,6.505,6.08054q2.45382,3.947,2.45382,10.668a16.49024,16.49024,0,0,1-1.1729,6.29274,16.12483,16.12483,0,0,1-3.25247,5.06969,18.01883,18.01883,0,0,1-4.90764,3.62672,20.66153,20.66153,0,0,1-6.02653,1.97154v.2122a10.93726,10.93726,0,0,1,3.947,2.50784,22.88429,22.88429,0,0,1,3.30649,4.96166l14.07861,29.65421H316.3991L304.98265,82.98583a19.34064,19.34064,0,0,0-2.558-4.15915,8.29228,8.29228,0,0,0-2.77406-2.18761,8.88446,8.88446,0,0,0-3.25247-.79865c-1.17675-.06944-2.47311-.108-3.89679-.108h-6.39692v33.06873h-10.668Zm10.668,32h9.0668q7.67978,0,11.891-3.09429a10.005,10.005,0,0,0,4.217-8.53436,9.63562,9.63562,0,0,0-3.78876-8.05209q-3.78491-2.93417-11.14637-2.93224h-10.2397Z" transform="translate(-90.50127 -27.51633)"/><path class="cls-2" d="M380.00014,106.5595q-1.49313.53823-3.09429,1.12274-1.59729.58452-3.5727,1.11888a39.221,39.221,0,0,1-4.58741.90668,42.48357,42.48357,0,0,1-5.9185.37425,33.43618,33.43618,0,0,1-12.53533-2.13359,23.402,23.402,0,0,1-8.74656-5.97251,24.67343,24.67343,0,0,1-5.17386-9.28286,40.11652,40.11652,0,0,1-1.70533-12.053,32.3352,32.3352,0,0,1,1.81336-11.09236,25.6344,25.6344,0,0,1,5.17386-8.69641,23.19845,23.19845,0,0,1,8.05208-5.70629,26.11928,26.11928,0,0,1,10.45576-2.02556,24.93378,24.93378,0,0,1,11.41258,2.34579A19.38206,19.38206,0,0,1,378.93527,61.92a27.86509,27.86509,0,0,1,4.001,9.75741,57.59024,57.59024,0,0,1,1.22305,12.16109H345.33411A18.22692,18.22692,0,0,0,346.77322,91.2a17.41563,17.41563,0,0,0,3.947,5.7063,18.184,18.184,0,0,0,5.76031,3.73475,17.64179,17.64179,0,0,0,6.77116,1.33494,23.00687,23.00687,0,0,0,5.06969-.59031,44.69413,44.69413,0,0,0,4.90765-1.3851,27.02176,27.02176,0,0,0,4.05112-1.75934,20.48273,20.48273,0,0,0,2.72-1.70919Zm-6.505-30.18664a18.86933,18.86933,0,0,0-.90668-5.86834,14.88292,14.88292,0,0,0-2.61586-4.85363,11.78655,11.78655,0,0,0-4.26718-3.25247,13.70964,13.70964,0,0,0-5.76031-1.1729,13.42474,13.42474,0,0,0-6.34676,1.3851,13.88669,13.88669,0,0,0-4.37135,3.57656,15.73659,15.73659,0,0,0-2.666,4.85363,26.0868,26.0868,0,0,0-1.22691,5.33205Z" transform="translate(-90.50127 -27.51633)"/><path class="cls-2" d="M404.10624,62.50645H391.30856V54.40034h12.79768V49.38467a49.57161,49.57161,0,0,1,.7485-8.95877,17.266,17.266,0,0,1,2.774-6.9332,12.96429,12.96429,0,0,1,5.59826-4.42923,23.14366,23.14366,0,0,1,9.12082-1.54714,27.86569,27.86569,0,0,1,3.5727.21606c1.10345.14275,2.15288.28165,3.1483.4244l-.42826,8.1061a9.72236,9.72236,0,0,0-2.18375-.47842,21.732,21.732,0,0,0-2.61587-.162,11.52446,11.52446,0,0,0-5.11984.96069,6.79513,6.79513,0,0,0-2.93224,2.72,11.18418,11.18418,0,0,0-1.33495,4.109,38.186,38.186,0,0,0-.32023,5.11984v5.86834h14.40271v8.10611H414.13373v46.29467H404.10624Z" transform="translate(-90.50127 -27.51633)"/><path class="cls-2" d="M433.46952,81.60073a32.09064,32.09064,0,0,1,1.97154-11.41644,25.93381,25.93381,0,0,1,5.65614-9.01279,26.26988,26.26988,0,0,1,8.74656-5.91849,31.16809,31.16809,0,0,1,22.667,0,25.58556,25.58556,0,0,1,8.74656,5.91849,26.38582,26.38582,0,0,1,5.60212,9.01279A32.17627,32.17627,0,0,1,488.831,81.60073a29.982,29.982,0,0,1-2.02556,11.03835,28.2643,28.2643,0,0,1-5.65614,9.06679,26.02767,26.02767,0,0,1-8.74656,6.13456,29.23747,29.23747,0,0,1-22.45479,0,26.818,26.818,0,0,1-8.74657-6.13456,27.738,27.738,0,0,1-5.70629-9.06679A29.98184,29.98184,0,0,1,433.46952,81.60073Zm10.668,0a26.85744,26.85744,0,0,0,1.01085,7.25344,21.03549,21.03549,0,0,0,3.09429,6.559,16.15134,16.15134,0,0,0,5.28189,4.74946,15.34565,15.34565,0,0,0,7.67784,1.81336,15.12354,15.12354,0,0,0,7.57367-1.81336,16.19017,16.19017,0,0,0,5.28189-4.74946,21.12168,21.12168,0,0,0,3.09428-6.559,26.85744,26.85744,0,0,0,1.01085-7.25344,24.55328,24.55328,0,0,0-1.17289-7.51965,22.32591,22.32591,0,0,0-3.30649-6.56282,15.84726,15.84726,0,0,0-5.332-4.58741,15.94376,15.94376,0,0,0-14.34868,0,16.50137,16.50137,0,0,0-5.33205,4.58741,21.54506,21.54506,0,0,0-3.3605,6.56282A24.55329,24.55329,0,0,0,444.13747,81.60073Z" transform="translate(-90.50127 -27.51633)"/><path class="cls-2" d="M502.273,54.40034h9.387v8.42634h.21221a17.6004,17.6004,0,0,1,5.92235-6.98722,14.17056,14.17056,0,0,1,8.26429-2.72,24.71387,24.71387,0,0,1,3.62672.2122q1.389.21412,2.99011.53243v8.96263a13.36892,13.36892,0,0,0-2.82807-.7485,18.53354,18.53354,0,0,0-2.72-.2122q-6.71907,0-10.776,5.97251-4.05113,5.97831-4.05112,16.21607v24.74656H502.273Z" transform="translate(-90.50127 -27.51633)"/><path class="cls-2" d="M543.66,54.40034h9.387v7.89005h.21606a18.12887,18.12887,0,0,1,7.03737-6.98337,21.80762,21.80762,0,0,1,10.2397-2.1876,17.76644,17.76644,0,0,1,9.01664,2.504,15.19845,15.19845,0,0,1,6.45093,8.05594,16.62921,16.62921,0,0,1,3.52254-4.90764,21.27376,21.27376,0,0,1,4.47939-3.30649,18.21045,18.21045,0,0,1,4.69544-1.81336,19.02322,19.02322,0,0,1,4.15915-.53243,21.55059,21.55059,0,0,1,8.80058,1.5973,15.47139,15.47139,0,0,1,5.81432,4.37521,17.56912,17.56912,0,0,1,3.25248,6.559,31.95732,31.95732,0,0,1,1.01471,8.26814v34.88209H611.71888V76.37286a38.02569,38.02569,0,0,0-.37425-5.22788,16.20387,16.20387,0,0,0-1.43911-4.85363,9.93742,9.93742,0,0,0-2.99012-3.62672,7.945,7.945,0,0,0-4.90378-1.43911,12.13094,12.13094,0,0,0-6.56282,1.70533,13.52189,13.52189,0,0,0-4.42537,4.5334,21.26589,21.26589,0,0,0-2.50784,6.45478,34.6308,34.6308,0,0,0-.79865,7.46564v27.41645H577.68945V76.37286a37.42925,37.42925,0,0,0-.37424-5.22788,16.20417,16.20417,0,0,0-1.43912-4.85363,9.92743,9.92743,0,0,0-2.98625-3.62672,7.95678,7.95678,0,0,0-4.90765-1.43911,12.11729,12.11729,0,0,0-6.559,1.70533,13.53288,13.53288,0,0,0-4.42922,4.5334,21.36552,21.36552,0,0,0-2.50784,6.45478,34.6308,34.6308,0,0,0-.79865,7.46564v27.41645H543.66Z" transform="translate(-90.50127 -27.51633)"/><path class="cls-2" d="M649.544,42.23926H638.23943V30.93084H649.544ZM638.8799,54.40034h10.02749v54.40078H638.8799Z" transform="translate(-90.50127 -27.51633)"/><path class="cls-2" d="M708.96045,106.5595q-1.49313.53823-3.09429,1.12274-1.59731.58452-3.5727,1.11888a39.22074,39.22074,0,0,1-4.58742.90668,42.48331,42.48331,0,0,1-5.91849.37425,33.43618,33.43618,0,0,1-12.53533-2.13359,23.402,23.402,0,0,1-8.74657-5.97251,24.67371,24.67371,0,0,1-5.17386-9.28286,40.11684,40.11684,0,0,1-1.70533-12.053,32.3352,32.3352,0,0,1,1.81336-11.09236,25.6344,25.6344,0,0,1,5.17386-8.69641,23.19859,23.19859,0,0,1,8.05209-5.70629,26.11927,26.11927,0,0,1,10.45575-2.02556,24.93383,24.93383,0,0,1,11.41259,2.34579A19.38206,19.38206,0,0,1,707.89558,61.92a27.86508,27.86508,0,0,1,4.001,9.75741A57.58956,57.58956,0,0,1,713.1196,83.8385H674.29442A18.22692,18.22692,0,0,0,675.73353,91.2a17.41563,17.41563,0,0,0,3.947,5.7063,18.184,18.184,0,0,0,5.76031,3.73475A17.64175,17.64175,0,0,0,692.212,101.976a23.00687,23.00687,0,0,0,5.06969-.59031,44.69394,44.69394,0,0,0,4.90764-1.3851,27.02145,27.02145,0,0,0,4.05113-1.75934,20.48406,20.48406,0,0,0,2.72-1.70919Zm-6.505-30.18664a18.86963,18.86963,0,0,0-.90668-5.86834,14.88294,14.88294,0,0,0-2.61587-4.85363,11.78639,11.78639,0,0,0-4.26718-3.25247,13.70964,13.70964,0,0,0-5.76031-1.1729,13.42472,13.42472,0,0,0-6.34675,1.3851,13.88673,13.88673,0,0,0-4.37136,3.57656,15.73677,15.73677,0,0,0-2.666,4.85363,26.0868,26.0868,0,0,0-1.22691,5.33205Z" transform="translate(-90.50127 -27.51633)"/><path class="cls-2" d="M725.56154,54.40034h9.387v8.42634h.2122a17.60051,17.60051,0,0,1,5.92236-6.98722,14.17053,14.17053,0,0,1,8.26428-2.72,24.71387,24.71387,0,0,1,3.62672.2122q1.389.21412,2.99012.53243v8.96263a13.36908,13.36908,0,0,0-2.82807-.7485,18.53375,18.53375,0,0,0-2.72-.2122q-6.71907,0-10.776,5.97251Q735.589,73.8168,735.589,84.05456v24.74656H725.56154Z" transform="translate(-90.50127 -27.51633)"/><path class="cls-2" d="M799.96258,62.50645H785.56373V92.26869q0,4.79767,2.50784,7.25343a8.17613,8.17613,0,0,0,5.91849,2.45383,11.96919,11.96919,0,0,0,4.001-.59031,13.90673,13.90673,0,0,0,2.82807-1.33108v8.53436q-1.70726.53244-3.8968,1.01085a21.56312,21.56312,0,0,1-4.63757.48228q-7.78972,0-12.26911-3.78876-4.47938-3.7849-4.47938-11.999V62.50645H763.271V54.40034h12.26525V41.811l10.02749-3.19846v15.7878h14.39885Z" transform="translate(-90.50127 -27.51633)"/><path class="cls-2" d="M851.259,106.5595q-1.49313.53823-3.09428,1.12274-1.59731.58452-3.57271,1.11888a39.221,39.221,0,0,1-4.58741.90668,42.48346,42.48346,0,0,1-5.9185.37425,33.43612,33.43612,0,0,1-12.53532-2.13359,23.402,23.402,0,0,1-8.74657-5.97251,24.67343,24.67343,0,0,1-5.17386-9.28286A40.11684,40.11684,0,0,1,805.925,80.64a32.3352,32.3352,0,0,1,1.81336-11.09236,25.6344,25.6344,0,0,1,5.17386-8.69641,23.19849,23.19849,0,0,1,8.05209-5.70629,26.11923,26.11923,0,0,1,10.45575-2.02556,24.93383,24.93383,0,0,1,11.41259,2.34579A19.38213,19.38213,0,0,1,850.19413,61.92a27.86527,27.86527,0,0,1,4.001,9.75741,57.59024,57.59024,0,0,1,1.223,12.16109H816.593A18.22675,18.22675,0,0,0,818.03208,91.2a17.41533,17.41533,0,0,0,3.947,5.7063,18.18378,18.18378,0,0,0,5.76031,3.73475,17.64175,17.64175,0,0,0,6.77116,1.33494,23.00687,23.00687,0,0,0,5.06969-.59031,44.69457,44.69457,0,0,0,4.90764-1.3851A27.02131,27.02131,0,0,0,848.539,98.2412a20.48273,20.48273,0,0,0,2.72-1.70919Zm-6.50494-30.18664a18.86963,18.86963,0,0,0-.90668-5.86834,14.88313,14.88313,0,0,0-2.61587-4.85363,11.78639,11.78639,0,0,0-4.26718-3.25247,13.70964,13.70964,0,0,0-5.76031-1.1729,13.42477,13.42477,0,0,0-6.34676,1.3851,13.8868,13.8868,0,0,0-4.37135,3.57656,15.73656,15.73656,0,0,0-2.666,4.85363,26.0868,26.0868,0,0,0-1.22691,5.33205Z" transform="translate(-90.50127 -27.51633)"/><path class="cls-2" d="M275.43647,143.38613h10.668v32.7485l31.7878-32.7485h14.18664l-34.99012,35.20232,37.76417,39.25344H319.27733l-33.1729-36.48325v36.48325h-10.668Z" transform="translate(-90.50127 -27.51633)"/><path class="cls-2" d="M355.03751,151.28H343.733V139.97161h11.30456Zm-10.66409,12.16108h10.02749v54.40078H344.37342Z" transform="translate(-90.50127 -27.51633)"/><path class="cls-2" d="M372.7467,163.44111h9.387v8.42633h.2122a17.60051,17.60051,0,0,1,5.92236-6.98722,14.17056,14.17056,0,0,1,8.26429-2.72,24.7122,24.7122,0,0,1,3.62671.21221q1.389.21413,2.99012.53243v8.96262a13.36905,13.36905,0,0,0-2.82807-.74849,18.53375,18.53375,0,0,0-2.72-.2122q-6.71907,0-10.776,5.97251-4.05112,5.9783-4.05113,16.21606v24.74657H372.7467Z" transform="translate(-90.50127 -27.51633)"/><path class="cls-2" d="M446.8035,172.61208a33.67721,33.67721,0,0,0-5.65614-1.75935,25.39968,25.39968,0,0,0-5.224-.58644,15.76468,15.76468,0,0,0-7.41548,1.70533,16.75637,16.75637,0,0,0-5.49409,4.58741,20.90787,20.90787,0,0,0-3.41066,6.56282,24.55727,24.55727,0,0,0-1.17676,7.51965,26.86326,26.86326,0,0,0,1.01471,7.25344,19.74941,19.74941,0,0,0,3.20232,6.559,16.41086,16.41086,0,0,0,5.65228,4.74945,17.6339,17.6339,0,0,0,8.26814,1.81336,20.97139,20.97139,0,0,0,5.49024-.8025,19.15675,19.15675,0,0,0,5.28189-2.29178l.74849,8.95876a19.8537,19.8537,0,0,1-6.45479,1.86738,56.49076,56.49076,0,0,1-6.13455.37425,27.53418,27.53418,0,0,1-11.2544-2.24163,26.818,26.818,0,0,1-8.74657-6.13455,27.738,27.738,0,0,1-5.70629-9.0668,29.98175,29.98175,0,0,1-2.02556-11.03834,32.09069,32.09069,0,0,1,1.97154-11.41645,25.98146,25.98146,0,0,1,5.65228-9.01278,26.28617,26.28617,0,0,1,8.75042-5.91849,28.96318,28.96318,0,0,1,11.35858-2.1336,36.06027,36.06027,0,0,1,6.559.64047,29.99553,29.99553,0,0,1,5.60212,1.49313Z" transform="translate(-90.50127 -27.51633)"/><path class="cls-2" d="M460.60125,137.838h10.02749v33.389h.2122a18.80661,18.80661,0,0,1,7.25344-6.721,21.76381,21.76381,0,0,1,10.23969-2.3458q10.56184,0,15.46757,6.18472,4.90764,6.19242,4.90764,17.17675v32.32024H498.68179V189.68081q0-9.60117-2.45382-14.29468t-9.0668-5.11984a15.69971,15.69971,0,0,0-7.41162,1.65517,14.285,14.285,0,0,0-5.17386,4.58355,20.355,20.355,0,0,0-2.98626,7.09525,40.27787,40.27787,0,0,0-.96069,9.0668v25.17483H460.60125Z" transform="translate(-90.50127 -27.51633)"/><path class="cls-2" d="M564.48508,215.60027q-1.49313.53822-3.09428,1.12274-1.59731.58452-3.57271,1.11888a39.223,39.223,0,0,1-4.58741.90668,42.485,42.485,0,0,1-5.9185.37425,33.43592,33.43592,0,0,1-12.53532-2.1336,23.40189,23.40189,0,0,1-8.74657-5.97251,24.67331,24.67331,0,0,1-5.17386-9.28285,40.11684,40.11684,0,0,1-1.70533-12.053,32.3352,32.3352,0,0,1,1.81336-11.09236,25.6343,25.6343,0,0,1,5.17386-8.69641,23.19849,23.19849,0,0,1,8.05209-5.70629,26.11924,26.11924,0,0,1,10.45575-2.02557,24.93382,24.93382,0,0,1,11.41259,2.3458,19.38211,19.38211,0,0,1,7.36147,6.45478,27.8654,27.8654,0,0,1,4.001,9.75742,57.59014,57.59014,0,0,1,1.223,12.16108H529.819a18.22677,18.22677,0,0,0,1.43912,7.36147,17.41529,17.41529,0,0,0,3.947,5.70629,18.18378,18.18378,0,0,0,5.76031,3.73475,17.64156,17.64156,0,0,0,6.77116,1.33494,23.00744,23.00744,0,0,0,5.06969-.5903,44.69678,44.69678,0,0,0,4.90764-1.3851A27.02026,27.02026,0,0,0,561.765,207.282a20.48386,20.48386,0,0,0,2.72-1.70918Zm-6.50494-30.18665a18.86972,18.86972,0,0,0-.90668-5.86834,14.88333,14.88333,0,0,0-2.61587-4.85363,11.78661,11.78661,0,0,0-4.26718-3.25247,13.70964,13.70964,0,0,0-5.76031-1.17289,13.42474,13.42474,0,0,0-6.34676,1.38509A13.88669,13.88669,0,0,0,533.712,175.228a15.73656,15.73656,0,0,0-2.666,4.85363,26.08755,26.08755,0,0,0-1.22692,5.332Z" transform="translate(-90.50127 -27.51633)"/></g><g id="Bildmarke"><path class="cls-2" d="M161.62657,110.81365a6.39179,6.39179,0,1,0,6.39152,6.3917A6.39893,6.39893,0,0,0,161.62657,110.81365Z" transform="translate(-90.50127 -27.51633)"/><path class="cls-2" d="M111.78054,163.32285a1.49371,1.49371,0,0,0-1.28394.57833,17.08987,17.08987,0,0,0-3.1822,7.73964c-.004.04339-.00579.08714-.00579.13089V192.8156a1.48108,1.48108,0,0,0,1.481,1.481H113.596a1.48108,1.48108,0,0,0,1.481-1.481V172.0447a17.92549,17.92549,0,0,0-2.109-7.96436A1.48145,1.48145,0,0,0,111.78054,163.32285Z" transform="translate(-90.50127 -27.51633)"/><path class="cls-2" d="M205.42711,186.45807l-11.87766-7.54268V142.75371l3.77663-4.73986c.01661-.02086.02705-.04431.04234-.06576.02622-.037.05031-.07432.07275-.113a1.466,1.466,0,0,0,.07767-.15143c.01446-.03331.02732-.06662.03923-.10068a1.461,1.461,0,0,0,.052-.1823c.00587-.02788.01057-.05559.01482-.08372a1.47384,1.47384,0,0,0,.01756-.20549c.00025-.02334-.00036-.04633-.0012-.06965a1.47784,1.47784,0,0,0-.02307-.21708c-.00366-.01986-.008-.03932-.01247-.059a1.46945,1.46945,0,0,0-.06719-.21834c-.00657-.0165-.01356-.03261-.02074-.04893a1.462,1.462,0,0,0-.1137-.21075l-.0272-.04a1.46194,1.46194,0,0,0-.15921-.19084c-.00635-.00644-.01057-.01408-.01706-.02043l-29.0585-28.45723V91.04847l3.68623-1.80587c.01614-.00791.02906-.01941.04477-.02782a1.46228,1.46228,0,0,0,.17947-.11152c.03013-.02213.05722-.04656.08529-.07062.02538-.02179.05286-.04.077-.06375.01487-.01462.026-.03164.04009-.04676.02714-.029.05234-.05878.07688-.08965a1.47289,1.47289,0,0,0,.09134-.12844c.01962-.03094.03892-.06156.05614-.09376a1.46922,1.46922,0,0,0,.06969-.15385c.012-.0302.02536-.05946.0353-.09035a1.48018,1.48018,0,0,0,.04608-.19308c.004-.02235.011-.04386.014-.06644a1.4826,1.4826,0,0,0,.01094-.2628c-.00122-.02653-.007-.05283-.00963-.07936a1.46923,1.46923,0,0,0-.02951-.18906c-.00751-.03191-.01829-.06305-.028-.09471a1.46352,1.46352,0,0,0-.06332-.17061c-.00721-.01614-.01035-.033-.01819-.049-.00811-.01652-.01989-.02979-.02852-.04588-.01182-.022-.01991-.0453-.03295-.06693l-6.06067-10.05841-7.29588-23.79321a1.4663,1.4663,0,0,0-.15315-.49945L157.70676,48.79l-1.32733-13.11369a1.4806,1.4806,0,0,0-1.4716-1.33185H154.906a1.48094,1.48094,0,0,0-1.473,1.32823l-1.3606,13.11641-8.64556,28.30137-6.06068,10.05768c-.01295.02151-.021.04463-.03272.06655-.0087.01623-.02059.02958-.02875.04626-.00793.0162-.01112.03326-.01842.0496a1.47349,1.47349,0,0,0-.06262.16881c-.01.03234-.021.06418-.02863.09677a1.46764,1.46764,0,0,0-.0289.18524c-.00285.02781-.00881.05534-.01008.08311a1.48342,1.48342,0,0,0,.01092.262c.003.02294.01014.04479.01425.0675a1.47914,1.47914,0,0,0,.04588.19222c.01.031.02348.06034.03548.09062a1.46131,1.46131,0,0,0,.06958.1536c.01733.03241.03679.06314.05652.09424a1.47072,1.47072,0,0,0,.09066.1275c.02493.03136.0506.06155.07819.091.01413.01505.0252.032.04005.04657.01954.01919.04255.03266.06291.05058a1.27086,1.27086,0,0,0,.25059.17753c.02484.014.046.032.07193.0447l3.68623,1.80587v22.568l-23.94044,15.27043a1.47372,1.47372,0,0,0-.23321.1844l-26.5481,25.69136a1.46071,1.46071,0,0,0-.12043.14011c-.01525.019-.03315.03547-.04743.05518a1.47087,1.47087,0,0,0-.14954.25694c-.00881.01941-.01385.04034-.02185.06018a1.4738,1.4738,0,0,0-.071.2226c-.00284.0124-.009.02352-.0115.036-.00422.0209-.00235.042-.00565.063a1.47932,1.47932,0,0,0-.01805.20085c-.00068.03467-.00134.06877.0004.10328a1.47646,1.47646,0,0,0,.0271.20982c.0054.02768.00813.05555.01512.08287a1.468,1.468,0,0,0,.10083.28053l.01.01661a1.48014,1.48014,0,0,0,.129.21385c.00547.00744.01292.01241.0185.01971.0062.00813.00981.01765.01621.02567l3.77554,4.73859v47.19046a1.4812,1.4812,0,0,0,1.16661,1.44737l34.33511,7.45852a1.49214,1.49214,0,0,0,.31421.03363c.02788,0,.05521-.00549.083-.007.01589-.00084.03157-.00066.04755-.002l61.5259-5.30188.00145.00014.01855-.00188.10836-.00933.01815-.00341a1.46583,1.46583,0,0,0,.26361-.0497l.02949-.00915a1.463,1.463,0,0,0,.23717-.0966l.03455-.01874a1.4715,1.4715,0,0,0,.20146-.13288c.01338-.01048.0261-.02133.0391-.03227a1.47823,1.47823,0,0,0,.1618-.15866c.01433-.01636.02773-.03313.04133-.0501a1.47054,1.47054,0,0,0,.11939-.173c.01446-.02445.02746-.04933.04052-.07462a1.46057,1.46057,0,0,0,.07584-.1738c.01277-.03521.02318-.07089.03329-.10723a1.45813,1.45813,0,0,0,.03548-.16235c.00745-.04675.01136-.094.0143-.14192.00167-.02883.00861-.05613.00861-.08537V188.79113l11.03049.39717a1.481,1.481,0,0,0,.84717-2.73023Zm-37.293-98.70413-2.12456,1.04085a1.48115,1.48115,0,0,0-.82944,1.33v14.55364l-2.19728-2.15181V84.52647Zm-18.34362-3.4676h10.23034v17.62449l-10.23034,6.52544Zm-2.962.22176v25.81748l-2.19727,1.40154V90.12483a1.48114,1.48114,0,0,0-.82945-1.33l-2.12962-1.04332Zm-27.3808,46.79569,30.5753-19.5025-24.60007,24.09133-11.77476,6.4241L100.85563,149.296Zm9.48188,82.99645L97.55664,207.485V160.97064a1.4808,1.4808,0,0,0-.3227-.92292l-2.99979-3.76505,31.69509-17.292,3.00033,3.76542ZM153.25,212.67937l-21.35845,1.84052V190.8003l14.43578-3.70948,6.92267.24926Zm32.3499-2.78765-7.14865.616v-9.6164a6.69814,6.69814,0,0,0-13.39627,0v10.77079l-8.843.762V187.44674l29.3879,1.05814Zm4.98753-.4298-2.02553.17455V188.61155l2.02553.07292ZM190.91,141.313a1.48278,1.48278,0,0,0-.32252.92292v34.79851l-29.53686-18.75681a1.482,1.482,0,0,0-1.84619.20773l-27.31283,27.56728V142.23829a1.481,1.481,0,0,0-.32289-.92292l-3.2652-4.098L161.23824,104.964l4.37512,4.28461.00138.00134,28.55831,27.96752Z" transform="translate(-90.50127 -27.51633)"/></g></svg>